<?xml version="1.0" encoding="utf-8"?>
<!-- Generator: Adobe Illustrator 24.2.0, SVG Export Plug-In . SVG Version: 6.00 Build 0)  -->
<svg version="1.1" id="Layer_1" xmlns="http://www.w3.org/2000/svg" xmlns:xlink="http://www.w3.org/1999/xlink" x="0px" y="0px"
	 viewBox="0 0 535.8 182.8" style="enable-background:new 0 0 535.8 182.8;" xml:space="preserve">
<style type="text/css">
	.st0{fill:#FFFFFF;}
</style>
<g transform="translate(0.000000,256.000000) scale(0.100000,-0.100000)">
	<path class="st0" d="M1155,2521c-439-71-750-457-722-895c8-123,30-202,87-321c85-175,204-295,383-385c151-76,167-70,167,61v87
		l-62-5c-118-10-190,28-235,123c-14,29-47,73-75,99c-40,37-48,49-37,56c38,24,116-15,164-82c46-64,87-89,147-89c70,0,95,13,107,56
		c5,20,18,45,27,55c15,17,15,18-12,24c-96,20-125,30-178,58c-122,65-171,165-171,347c0,106,2,119,27,167c15,28,32,54,37,57
		s7,41,4,84c-3,45,0,95,7,121l11,43l42-5c23-3,78-24,122-46c72-37,83-40,115-31c63,19,220,22,304,7l78-14l77,39c42,22,95,42,118,45
		l42,5l11-43c7-26,10-76,7-121c-3-43-1-81,4-84s22-29,37-57c25-48,27-61,27-167c0-136-17-195-75-269c-45-56-129-103-218-121
		c-89-19-87-18-70-38c30-34,38-86,38-236c0-160,4-176,46-176c36,0,214,95,282,150c92,75,167,172,222,285c57,119,79,198,87,321
		c26,404-232,763-629,874C1416,2523,1236,2534,1155,2521z"/>
	<path class="st0" d="M735,1310c3-5,8-10,11-10c2,0,4,5,4,10c0,6-5,10-11,10C734,1320,732,1316,735,1310z"/>
	<path class="st0" d="M765,1280c3-5,11-10,16-10c6,0,7,5,4,10c-3,6-11,10-16,10C763,1290,762,1286,765,1280z"/>
	<path class="st0" d="M800,1236c0-9,5-16,10-16c6,0,10,4,10,9c0,6-4,13-10,16C805,1248,800,1244,800,1236z"/>
	<path class="st0" d="M842,1189c2-7,10-15,17-17c8-3,12,1,9,9c-2,7-10,15-17,17C843,1201,839,1197,842,1189z"/>
	<path class="st0" d="M895,1150c3-5,13-10,21-10s14,5,14,10c0,6-9,10-21,10C898,1160,892,1156,895,1150z"/>
	<path class="st0" d="M1030,1150c0-5,7-10,15-10s15,5,15,10c0,6-7,10-15,10S1030,1156,1030,1150z"/>
	<path class="st0" d="M960,1140c0-5,9-10,20-10s20,5,20,10c0,6-9,10-20,10S960,1146,960,1140z"/>
	<path class="st0" d="M2579.3,1875.2c-134-38-194-156-186-366c5-127,29-194,90-245c86-74,252-87,376-29l32,15v169v169h-120h-121
		l3-57l3-58l48-3l47-3v-64v-64l-35-7c-118-22-185,55-185,213c0,165,75,229,237,203c36-6,67-9,68-8c3,5,25,96,25,106
		C2861.3,1877.2,2660.3,1898.2,2579.3,1875.2z"/>
	<path class="st0" d="M3513.3,1536.2l3-323l68-3l67-3v141v140h95h94l3-138l3-137h65h65l3,323l2,322h-70h-70v-120v-120h-95h-95v120
		v120h-70h-70L3513.3,1536.2z"/>
	<path class="st0" d="M4513.3,1536.2l3-323l43-3c31-2,47,1,56,13c10,14,14,14,46-2c51-26,160-24,197,3c49,36,67,87,71,204
		c3,94,1,110-20,149c-13,25-35,54-50,64c-35,26-112,33-165,14l-43-15v109v109h-70h-70L4513.3,1536.2z M4766.3,1533.2
		c22-21,25-33,25-103c0-93-11-114-62-114c-77,0-78,1-78,117v104l33,10C4733.3,1561.2,4740.3,1560.2,4766.3,1533.2z"/>
	<path class="st0" d="M2976.3,1823.2c-40-39-32-96,17-121c53-28,108,6,108,67C3101.3,1839.2,3024.3,1872.2,2976.3,1823.2z"/>
	<path class="st0" d="M3211.3,1714.2c0-63,0-63-32-72c-31-9-33-13-36-57l-3-47h35h36v-97c0-54,5-116,10-138c17-75,95-116,190-100
		l40,7v54v54h-38c-21,0-43,5-50,12c-8,8-12,47-12,110v98h50h50v60v60h-50h-50v60v60h-70h-70V1714.2z"/>
	<path class="st0" d="M2963.3,1436.2l3-223h65h65v220v220l-68,3l-67,3L2963.3,1436.2z"/>
	<path class="st0" d="M4048.3,1652.2c-4-4-7-83-7-176c0-186,8-221,56-253c39-27,164-28,212-2c31,17,35,17,46,2c8-12,23-16,51-13
		l40,3v220v220h-65h-65l-3-156c-2-109-6-160-15-167c-25-19-75-22-96-4c-19,16-21,29-23,172l-3,155l-60,3
		C4082.3,1658.2,4052.3,1656.2,4048.3,1652.2z"/>
</g>
</svg>
